<?xml version="1.0" encoding="UTF-8"?>
<svg id="LetterE" xmlns="http://www.w3.org/2000/svg" viewBox="0 0 2487.06 860.06">
  <defs>
    <style>
      .cls-1 {
        fill: #108be1;
      }

      .cls-2 {
        fill: #4db6ff;
      }

      .cls-3 {
        fill: #0c6bc3;
      }
    </style>
  </defs>
  <path class="cls-1" d="m1841.25,397.23c-.38,2.38-1.46,4.41-2.9,5.78-1.44,1.37-3.23,2.07-5.03,1.79l-27.09-4.33c-3.62-.58-5.94-4.91-5.18-9.66.38-2.38,1.46-4.41,2.9-5.78,1.44-1.37,3.23-2.07,5.03-1.79l27.09,4.33c3.62.58,5.94,4.91,5.18,9.66Z"/>
  <path class="cls-1" d="m1853.88,428.69c-.38,2.38-1.77,4.36-3.72,5.65-1.95,1.29-4.44,1.88-7.02,1.47l-38.69-6.19c-5.17-.83-8.74-5.36-7.98-10.11.38-2.38,1.77-4.36,3.72-5.65,1.95-1.29,4.44-1.88,7.02-1.47l38.69,6.19c5.17.83,8.74,5.36,7.98,10.11Z"/>
  <path class="cls-1" d="m1832.07,454.64c-.38,2.38-1.46,4.41-2.9,5.78-1.44,1.37-3.23,2.07-5.03,1.79l-27.09-4.33c-3.62-.58-5.94-4.91-5.18-9.66.38-2.38,1.46-4.41,2.9-5.78,1.44-1.37,3.23-2.07,5.03-1.79l27.09,4.33c3.62.58,5.94,4.91,5.18,9.66Z"/>
  <path class="cls-3" d="m1818.52,384.76l-2.76,17.22-8.54-1.37c-4.16-.67-6.92-5.06-6.16-9.82.38-2.38,1.57-4.39,3.18-5.73,1.62-1.34,3.65-2.01,5.73-1.67l8.54,1.37Z"/>
  <path class="cls-3" d="m1805.38,412.1l8.54,1.37-2.76,17.22-8.54-1.37c-4.16-.67-6.92-5.06-6.16-9.82.38-2.38,1.57-4.39,3.18-5.73,1.62-1.34,3.65-2.01,5.73-1.67Z"/>
  <path class="cls-3" d="m1800.79,440.81l8.54,1.37-2.76,17.22-8.54-1.37c-4.16-.67-6.92-5.06-6.16-9.82.38-2.38,1.57-4.39,3.18-5.73,1.62-1.34,3.65-2.01,5.73-1.67Z"/>
  <path class="cls-1" d="m1842.9,498.03c1.11,9.38-9.39,14.8-17.44,12.67-6.55-1.21-13.09-2.44-19.65-3.65-5-.93-10-1.86-14.98-2.79-7.58-1.4-14.2-2.75-20.53-7.34-5.56-4.01-10.66-9.04-13.32-15.47-4.95-11.99-.82-26.52,1.25-38.75,1.2-7.04,2.52-14.05,3.89-21.05,1.42-7.36,2.91-14.7,4.34-22.06,1.99-10.26,3.82-20.55,6.05-30.75,4.32-19.74,24.38-29.48,43.26-25.76l42.3,7.95s10.52.51,8.13,15.43c0,0-1.47,9.19-11.99,8.68s-32.7-1.7-32.7-1.7c0,0-5.74-.92-7.03,7.12-.65,4.04-4.86,26.62-8.88,48.04-3.95,21.04-7.72,40.97-7.75,41.16-1.05,5.54,4.98,7.53,9.06,8.53,5.16,1.25,10.36,2.62,15.34,4.43,4.56,1.65,9.47,2.67,13.63,5.3,3.55,2.25,6.52,5.81,7.02,9.99Z"/>
  <path class="cls-2" d="m1790.02,349.79c3.65-2.12,7.84-3.54,12.52-4.25,3.75-.57,10.95-1.58,12.96,2.81,3.56,7.76-11.07,6.22-14.78,6.99-6.56,1.37-12.58,5.06-14.88,11.62-.7,2-1.02,4.11-1.73,6.1-.99,2.79-2.96,5.7-6.28,4.59-4.38-1.47-2.56-7.98-1.44-11.02,2.81-7.63,7.43-13.26,13.62-16.85Z"/>
  <path class="cls-3" d="m1825.45,510.7c-6.55-1.21-13.09-2.44-19.65-3.65-5-.93-10-1.86-14.98-2.79-7.58-1.4-14.2-2.75-20.53-7.34-5.56-4.01-10.66-9.04-13.32-15.47-4.95-11.99-.82-26.52,1.25-38.75,1.2-7.04,2.52-14.05,3.89-21.05l43.49,6.96c-3.95,21.04-7.72,40.97-7.75,41.16-1.05,5.54,4.98,7.53,9.06,8.53,5.16,1.25,10.36,2.62,15.34,4.43,4.56,1.65,9.47,2.67,13.63,5.3,3.55,2.25,6.52,5.81,7.02,9.99,1.11,9.38-9.39,14.8-17.44,12.67Z"/>
</svg>