<?xml version="1.0" encoding="UTF-8"?>
<svg xmlns="http://www.w3.org/2000/svg" xmlns:xlink="http://www.w3.org/1999/xlink" viewBox="0 0 2487.06 860.06">
  <defs>
    <style>
      .cls-1 {
        fill: #d1ae90;
      }

      .cls-2 {
        fill: #fff;
      }

      .cls-3 {
        fill: #e65952;
      }

      .cls-4 {
        fill: #c17d61;
      }

      .cls-5 {
        fill: #d7b7a0;
      }

      .cls-6 {
        clip-path: url(#clippath);
      }

      .cls-7 {
        fill: none;
      }

      .cls-8 {
        fill: #845855;
      }

      .cls-9 {
        fill: #6982ab;
      }

      .cls-10 {
        fill: #e5e3e5;
      }

      .cls-11 {
        fill: #f5ece5;
      }

      .cls-12 {
        fill: #f2f0f0;
      }

      .cls-13 {
        fill: #b27359;
      }

      .cls-14 {
        fill: #dab1a0;
      }
    </style>
    <clipPath id="clippath">
      <path class="cls-7" d="m1133.95,486.03v-182.62c0-1.03.38-1.95,1.15-2.76.77-.81,1.67-1.22,2.7-1.22h46.33c1.03,0,1.95.41,2.76,1.22.81.81,1.22,1.73,1.22,2.76v53.13c3.51-4.62,8.26-8.23,14.25-10.84,5.99-2.61,12.54-3.92,19.65-3.92,15.9,0,28.28,4.26,37.14,12.77,8.86,8.51,13.28,20.39,13.28,35.61v95.87c0,1.03-.41,1.95-1.23,2.76-.82.81-1.74,1.22-2.77,1.22h-46.42c-1.03,0-1.94-.41-2.71-1.22-.77-.81-1.12-1.73-1.03-2.76v-82.52c0-5.22-1.13-9.28-3.4-12.19-2.27-2.91-5.41-4.36-9.43-4.36-2.82,0-5.35.51-7.57,1.54-2.23,1.03-3.91,2.25-5.07,3.66-1.15,1.41-2.12,2.85-2.89,4.3-.77,1.46-1.28,2.69-1.54,3.72l-.26,1.54v84.32c0,1.03-.41,1.95-1.22,2.76-.81.81-1.73,1.22-2.76,1.22h-46.33c-1.03,0-1.93-.41-2.7-1.22-.77-.81-1.15-1.73-1.15-2.76Z"/>
    </clipPath>
  </defs>
  <g id="LetterVuitklap">
    <g>
      <path class="cls-12" d="m1575.83,339.87c16.9,22.68,46.59,127.93,44.71,134.29-1.4,4.74,1.49,10.13,3.34,14.36,1.97,4.5,3.24,9.27,5.27,13.76,1.25,2.77,3.24,5.16,4.74,7.8.3.54.61,1.14.44,1.72-.22.74-1.16,1.06-1.91.86-.75-.2-1.32-.77-1.86-1.33-5.19-5.48-9.46-12.77-12.46-19.69,0,0-11.63-39.11-20.21-63.36-2.62-7.42-6.71-15.37-12.68-21-2.71-2.57-5.82-4.65-9.36-5.99-.46-.17-.95-.35-1.29-.71-.25-.25-.39-.59-.54-.91-3.96-8.85-8.22-17.55-12.26-26.35-2.3-5.02-4.85-9.92-6.97-15.02-1.57-3.74-4.74-9.86-3.36-14.02.45-1.36,1.43-2.48,2.47-3.46.55-.53,1.12-1.03,1.71-1.5,6.33-5.1,14.6-6.96,20.21.56Z"/>
      <path class="cls-10" d="m1585.22,407.27c-2.71-2.57-5.82-4.65-9.36-5.99-.46-.17-.95-.35-1.29-.71-.25-.25-.39-.59-.54-.91-3.96-8.85-8.22-17.55-12.26-26.35-2.3-5.02-4.85-9.92-6.97-15.02-1.57-3.74-4.74-9.86-3.36-14.02.45-1.36,1.43-2.48,2.47-3.46.55-.53,1.12-1.03,1.71-1.5l29.6,67.96Z"/>
    </g>
  </g>
  <g id="LetterV">
    <g>
      <path class="cls-4" d="m1636.2,501.07h0c-.63.57-1.39,1.06-2.31,1.48-4.32,1.94-8.87,2.06-12.08-1.83-3.85-4.68-7.03-10.32-10.36-15.4-3.91-5.97-7.82-11.94-11.73-17.91-7.82-11.94-15.55-23.95-23.47-35.82l-21.14-32.27c-2.9-4.44-5.81-8.87-8.72-13.31-3.8-5.8-9.16-11.81-11.37-18.38-3.05-9.06-.04-19.8,8.36-24.72,7.66-4.49,17.64-3.6,23.64,3.31,4.34,5,6.73,12.39,9.71,18.34,2.33,4.65,4.65,9.3,6.97,13.96,11.63,23.31,23.21,46.65,34.61,70.09,5.27,10.83,10.31,21.76,15.84,32.43,2.79,5.38,7.42,15.21,2.05,20.04Z"/>
      <path class="cls-13" d="m1636.2,501.08c-.63.56-1.39,1.06-2.31,1.47-4.32,1.94-8.87,2.06-12.08-1.83-3.85-4.68-7.03-10.32-10.36-15.4-3.91-5.97-7.82-11.94-11.73-17.91-7.82-11.94-15.55-23.95-23.47-35.82l-21.14-32.27c-2.9-4.44-5.81-8.87-8.72-13.31-3.8-5.8-9.16-11.81-11.37-18.38-3.22-9.56.36-18.74,8.15-24.59-3.1,2.62-5.21,6.38-5.82,10.39-.21,1.39-.25,2.84.15,4.19.35,1.18,1.02,2.25,1.68,3.29,23.75,37.61,47.34,75.33,71.41,112.74,2.52,3.92,4.56,8.12,7.18,11.97,1.42,2.08,3.09,3.98,4.68,5.92s3.04,3.72,4.86,5.34c2.05,1.82,4.51,3.54,7.26,4.08.26.05,1.37.34,1.62.11Z"/>
      <circle class="cls-2" cx="1624.44" cy="486.14" r="4.97"/>
      <rect class="cls-14" x="1579.63" y="374.93" width="5.31" height="25.84" rx="2.66" ry="2.66" transform="translate(-4.44 757.11) rotate(-26.87)"/>
    </g>
  </g>
  <g id="LetterH">
    <g>
      <g class="cls-6">
        <g>
          <g>
            <rect class="cls-3" x="742.95" y="424.37" width="684.22" height="18" transform="translate(618.6 -637.88) rotate(44.7)"/>
            <rect class="cls-9" x="755.61" y="411.58" width="684.22" height="18" transform="translate(613.26 -650.49) rotate(44.7)"/>
            <rect class="cls-11" x="768.28" y="398.78" width="684.22" height="18" transform="translate(607.92 -663.09) rotate(44.7)"/>
            <rect class="cls-3" x="778.83" y="388.12" width="684.22" height="18" transform="translate(603.47 -673.6) rotate(44.7)"/>
            <rect class="cls-9" x="791.49" y="375.33" width="684.22" height="18" transform="translate(598.13 -686.2) rotate(44.7)"/>
            <rect class="cls-11" x="804.15" y="362.53" width="684.22" height="18" transform="translate(592.8 -698.81) rotate(44.7)"/>
            <rect class="cls-3" x="816.1" y="350.45" width="684.22" height="18" transform="translate(587.75 -710.71) rotate(44.7)"/>
            <rect class="cls-9" x="828.77" y="337.65" width="684.22" height="18" transform="translate(582.42 -723.32) rotate(44.7)"/>
            <rect class="cls-11" x="841.43" y="324.86" width="684.22" height="18" transform="translate(577.08 -735.92) rotate(44.7)"/>
            <rect class="cls-3" x="854.09" y="312.06" width="684.22" height="18" transform="translate(571.74 -748.53) rotate(44.7)"/>
            <rect class="cls-9" x="866.75" y="299.27" width="684.22" height="18" transform="translate(566.4 -761.13) rotate(44.7)"/>
            <rect class="cls-11" x="879.41" y="286.47" width="684.22" height="18" transform="translate(561.06 -773.74) rotate(44.7)"/>
          </g>
          <g>
            <rect class="cls-3" x="892.41" y="278.81" width="684.22" height="18" transform="translate(559.43 -785.1) rotate(44.7)"/>
            <rect class="cls-9" x="905.07" y="266.02" width="684.22" height="18" transform="translate(554.09 -797.7) rotate(44.7)"/>
            <rect class="cls-11" x="917.73" y="253.22" width="684.22" height="18" transform="translate(548.75 -810.31) rotate(44.7)"/>
            <rect class="cls-3" x="928.28" y="242.56" width="684.22" height="18" transform="translate(544.31 -820.81) rotate(44.7)"/>
            <rect class="cls-9" x="940.94" y="229.77" width="684.22" height="18" transform="translate(538.97 -833.41) rotate(44.7)"/>
            <rect class="cls-11" x="953.6" y="216.97" width="684.22" height="18" transform="translate(533.63 -846.02) rotate(44.7)"/>
            <rect class="cls-3" x="965.56" y="204.89" width="684.22" height="18" transform="translate(528.59 -857.92) rotate(44.7)"/>
            <rect class="cls-9" x="978.22" y="192.09" width="684.22" height="18" transform="translate(523.25 -870.53) rotate(44.7)"/>
            <rect class="cls-11" x="990.88" y="179.3" width="684.22" height="18" transform="translate(517.91 -883.13) rotate(44.7)"/>
            <rect class="cls-3" x="1003.54" y="166.5" width="684.22" height="18" transform="translate(512.57 -895.74) rotate(44.7)"/>
            <rect class="cls-9" x="1016.2" y="153.71" width="684.22" height="18" transform="translate(507.23 -908.34) rotate(44.7)"/>
            <rect class="cls-11" x="1028.86" y="140.91" width="684.22" height="18" transform="translate(501.9 -920.95) rotate(44.7)"/>
          </g>
          <g>
            <rect class="cls-3" x="593.63" y="574.05" width="684.22" height="18" transform="translate(680.69 -489.57) rotate(44.7)"/>
            <rect class="cls-9" x="606.29" y="561.26" width="684.22" height="18" transform="translate(675.35 -502.17) rotate(44.7)"/>
            <rect class="cls-11" x="618.95" y="548.46" width="684.22" height="18" transform="translate(670.02 -514.78) rotate(44.7)"/>
            <rect class="cls-3" x="629.5" y="537.8" width="684.22" height="18" transform="translate(665.57 -525.28) rotate(44.7)"/>
            <rect class="cls-9" x="642.16" y="525" width="684.22" height="18" transform="translate(660.23 -537.89) rotate(44.7)"/>
            <rect class="cls-11" x="654.82" y="512.21" width="684.22" height="18" transform="translate(654.89 -550.49) rotate(44.7)"/>
            <rect class="cls-3" x="666.78" y="500.12" width="684.22" height="18" transform="translate(649.85 -562.4) rotate(44.7)"/>
            <rect class="cls-9" x="679.44" y="487.33" width="684.22" height="18" transform="translate(644.51 -575) rotate(44.7)"/>
            <rect class="cls-11" x="692.1" y="474.53" width="684.22" height="18" transform="translate(639.17 -587.61) rotate(44.7)"/>
            <rect class="cls-3" x="704.76" y="461.74" width="684.22" height="18" transform="translate(633.83 -600.21) rotate(44.7)"/>
            <rect class="cls-9" x="717.42" y="448.95" width="684.22" height="18" transform="translate(628.5 -612.82) rotate(44.7)"/>
            <rect class="cls-11" x="730.08" y="436.15" width="684.22" height="18" transform="translate(623.16 -625.42) rotate(44.7)"/>
          </g>
        </g>
      </g>
      <g>
        <rect class="cls-8" x="1156.77" y="270" width="8.61" height="7" rx="3.5" ry="3.5"/>
        <path class="cls-1" d="m1187.16,299s-11.26,0-25.82,0c-14.56,0-26.9,0-26.9,0,0-13.81,11.8-25,26.36-25,14.56,0,26.36,11.19,26.36,25Z"/>
        <path class="cls-5" d="m1139.55,298.44c0,.56,6.97.56,14.99.56s14.06,0,14.06-.56c0-9.63-6.5-17.44-14.52-17.44s-14.52,7.81-14.52,17.44Z"/>
        <rect class="cls-8" x="1130.68" y="298" width="60.25" height="6" rx="3" ry="3"/>
      </g>
      <g>
        <rect class="cls-8" x="1156.77" y="513" width="8.61" height="7" rx="3.5" ry="3.5"/>
        <path class="cls-1" d="m1187.16,491s-11.26,0-25.82,0h-26.9c0,13.81,11.8,25,26.36,25,14.56,0,26.36-11.19,26.36-25Z"/>
        <path class="cls-5" d="m1139.55,491.56c0-.56,6.97-.56,14.99-.56s14.06,0,14.06.56c0,9.63-6.5,17.44-14.52,17.44s-14.52-7.81-14.52-17.44Z"/>
        <rect class="cls-8" x="1130.68" y="486" width="60.25" height="6" rx="3" ry="3"/>
      </g>
    </g>
  </g>
</svg>