<?xml version="1.0" encoding="UTF-8"?>
<svg id="LetterH" xmlns="http://www.w3.org/2000/svg" xmlns:xlink="http://www.w3.org/1999/xlink" viewBox="0 0 2487.06 860.06">
  <defs>
    <style>
      .cls-1 {
        fill: #d1ae90;
      }

      .cls-2 {
        fill: #e65952;
      }

      .cls-3 {
        fill: #d7b7a0;
      }

      .cls-4 {
        clip-path: url(#clippath);
      }

      .cls-5 {
        fill: none;
      }

      .cls-6 {
        fill: #845855;
      }

      .cls-7 {
        fill: #6982ab;
      }

      .cls-8 {
        fill: #f5ece5;
      }
    </style>
    <clipPath id="clippath">
      <path class="cls-5" d="m1133.95,486.03v-182.62c0-1.03.38-1.95,1.15-2.76.77-.81,1.67-1.22,2.7-1.22h46.33c1.03,0,1.95.41,2.76,1.22.81.81,1.22,1.73,1.22,2.76v53.13c3.51-4.62,8.26-8.23,14.25-10.84,5.99-2.61,12.54-3.92,19.65-3.92,15.9,0,28.28,4.26,37.14,12.77,8.86,8.51,13.28,20.39,13.28,35.61v95.87c0,1.03-.41,1.95-1.23,2.76-.82.81-1.74,1.22-2.77,1.22h-46.42c-1.03,0-1.94-.41-2.71-1.22-.77-.81-1.12-1.73-1.03-2.76v-82.52c0-5.22-1.13-9.28-3.4-12.19-2.27-2.91-5.41-4.36-9.43-4.36-2.82,0-5.35.51-7.57,1.54-2.23,1.03-3.91,2.25-5.07,3.66-1.15,1.41-2.12,2.85-2.89,4.3-.77,1.46-1.28,2.69-1.54,3.72l-.26,1.54v84.32c0,1.03-.41,1.95-1.22,2.76-.81.81-1.73,1.22-2.76,1.22h-46.33c-1.03,0-1.93-.41-2.7-1.22-.77-.81-1.15-1.73-1.15-2.76Z"/>
    </clipPath>
  </defs>
  <g class="cls-4">
    <g>
      <rect class="cls-2" x="977.7" y="476.95" width="321" height="18" transform="translate(670.94 -660.05) rotate(44.7)"/>
      <rect class="cls-7" x="990.36" y="464.16" width="321" height="18" transform="translate(665.6 -672.65) rotate(44.7)"/>
      <rect class="cls-8" x="1003.02" y="451.36" width="321" height="18" transform="translate(660.26 -685.26) rotate(44.7)"/>
      <rect class="cls-2" x="1013.57" y="440.7" width="321" height="18" transform="translate(655.82 -695.76) rotate(44.7)"/>
      <rect class="cls-7" x="1026.23" y="427.9" width="321" height="18" transform="translate(650.48 -708.37) rotate(44.7)"/>
      <rect class="cls-8" x="1038.89" y="415.11" width="321" height="18" transform="translate(645.14 -720.97) rotate(44.7)"/>
      <rect class="cls-2" x="1050.85" y="403.02" width="321" height="18" transform="translate(640.1 -732.88) rotate(44.7)"/>
      <rect class="cls-7" x="1063.51" y="390.23" width="321" height="18" transform="translate(634.76 -745.48) rotate(44.7)"/>
      <rect class="cls-8" x="1076.17" y="377.43" width="321" height="18" transform="translate(629.42 -758.09) rotate(44.7)"/>
      <rect class="cls-2" x="1088.83" y="364.64" width="321" height="18" transform="translate(624.08 -770.69) rotate(44.7)"/>
      <rect class="cls-7" x="1101.49" y="351.84" width="321" height="18" transform="translate(618.74 -783.3) rotate(44.7)"/>
      <rect class="cls-8" x="1114.15" y="339.05" width="321" height="18" transform="translate(613.41 -795.9) rotate(44.7)"/>
    </g>
  </g>
  <g>
    <rect class="cls-6" x="1156.77" y="270" width="8.61" height="7" rx="3.5" ry="3.5"/>
    <path class="cls-1" d="m1187.16,299s-11.26,0-25.82,0c-14.56,0-26.9,0-26.9,0,0-13.81,11.8-25,26.36-25,14.56,0,26.36,11.19,26.36,25Z"/>
    <path class="cls-3" d="m1139.55,298.44c0,.56,6.97.56,14.99.56s14.06,0,14.06-.56c0-9.63-6.5-17.44-14.52-17.44s-14.52,7.81-14.52,17.44Z"/>
    <rect class="cls-6" x="1130.68" y="298" width="60.25" height="6" rx="3" ry="3"/>
  </g>
  <g>
    <rect class="cls-6" x="1156.77" y="513" width="8.61" height="7" rx="3.5" ry="3.5"/>
    <path class="cls-1" d="m1187.16,491s-11.26,0-25.82,0h-26.9c0,13.81,11.8,25,26.36,25,14.56,0,26.36-11.19,26.36-25Z"/>
    <path class="cls-3" d="m1139.55,491.56c0-.56,6.97-.56,14.99-.56s14.06,0,14.06.56c0,9.63-6.5,17.44-14.52,17.44s-14.52-7.81-14.52-17.44Z"/>
    <rect class="cls-6" x="1130.68" y="486" width="60.25" height="6" rx="3" ry="3"/>
  </g>
</svg>