<?xml version="1.0" encoding="UTF-8"?>
<svg xmlns="http://www.w3.org/2000/svg" viewBox="0 0 2487.06 860.06">
  <defs>
    <style>
      .cls-1 {
        fill: #f8f6f6;
      }

      .cls-2 {
        fill: #ed8e99;
      }

      .cls-3 {
        fill: #9a9aa5;
      }

      .cls-4 {
        fill: #de5964;
      }

      .cls-5 {
        fill: #9be69d;
      }

      .cls-6 {
        fill: #cdf9cd;
      }

      .cls-7 {
        fill: #888891;
      }

      .cls-8 {
        fill: #75d89f;
      }

      .cls-9 {
        fill: #585555;
      }

      .cls-10 {
        fill: #ece6e3;
      }

      .cls-11 {
        fill: #ece7e4;
      }
    </style>
  </defs>
  <g id="LetterA">
    <g>
      <rect class="cls-7" x="1347.24" y="368.29" width="12.68" height="21.02" transform="translate(1560.71 1769.03) rotate(-114.11)"/>
      <path class="cls-8" d="m1328.73,373h22.44v15.36c0,4.22-3.42,7.64-7.64,7.64h-7.15c-4.22,0-7.64-3.42-7.64-7.64v-15.36h0Z" transform="translate(1536.31 1764.62) rotate(-114.11)"/>
      <path class="cls-5" d="m1418.82,391.08c3.68,3.43,5.52,7.96,5.52,13.61v11.03c-2.65-4.19-7.1-7.57-13.34-10.13-6.25-2.57-13.18-3.85-20.79-3.85-14.81,0-26.81,3.91-36,11.74-9.2,7.83-13.84,18.2-13.93,31.12v.77c0,14.12,4.49,25.54,13.48,34.27,9.15,8.9,21.3,13.34,36.45,13.34,9.58,0,18.41-1.35,26.5-4.04,8.08-2.69,14.31-6.35,18.67-10.97l1.92,7.06c0,1.02.43,1.94,1.29,2.76.85.81,1.8,1.21,2.82,1.21h33.11c1.03,0,1.95-.4,2.76-1.21.81-.82,1.22-1.74,1.22-2.76v-68.02c0-26.18-5.39-45.43-16.17-57.75-10.78-12.32-27.55-18.48-50.31-18.48-10.52,0-20.77,1.3-30.73,3.91-9.97,2.61-18.72,6.31-26.25,11.1-1.71,1.46-2.18,3.13-1.41,5.01l3.91,8.19h0s11.1,23.25,11.1,23.25c1.28,2.31,2.6,3.04,3.97,2.18,4.37-2.48,9.44-4.51,15.21-6.1,5.78-1.58,11.23-2.37,16.36-2.37,6.08,0,10.96,1.71,14.63,5.13m5.52,56.25c-4.45,4.51-9.24,6.77-14.37,6.77-3.25,0-5.9-.87-7.96-2.6-2.05-1.74-3.08-4.08-3.08-7.03s1.03-5.29,3.08-7.02c2.06-1.74,4.71-2.6,7.96-2.6,5.22,0,10.01,2.21,14.37,6.63v5.85Z"/>
      <g>
        <rect class="cls-3" x="1303.94" y="382.16" width="37.02" height="19.34" transform="translate(1139.93 -975.31) rotate(65.89)"/>
        <rect class="cls-7" x="1304.1" y="388.17" width="37.02" height="7.18" transform="translate(1139.96 -975.51) rotate(65.89)"/>
        <rect class="cls-8" x="1309.83" y="358.68" width="7.18" height="25.97" rx="3.56" ry="3.56" transform="translate(1116.18 -979) rotate(65.89)"/>
        <rect class="cls-8" x="1327.88" y="399.02" width="7.18" height="25.97" rx="3.56" ry="3.56" transform="translate(1163.68 -971.62) rotate(65.89)"/>
      </g>
      <g>
        <rect class="cls-3" x="1436.95" y="484" width="41.55" height="17"/>
        <path class="cls-3" d="m1436.04,499.97c-.21-.06,1.07-2.46,1.18-2.74.4-1.03.72-2.12.72-3.23,0-2,2.27,6.96,2.27,6.96,0-.29-3.65-.84-4.18-.99Z"/>
        <g>
          <path class="cls-3" d="m1480.02,500c0,12.15-9.85,22-22,22s-22-9.85-22-22h44Z"/>
          <path class="cls-3" d="m1479.99,499.97c.21-.06-1.07-2.46-1.18-2.74-.4-1.03-.72-2.12-.72-3.23,0-2-2.27,6.96-2.27,6.96,0-.29,3.65-.84,4.18-.99Z"/>
        </g>
        <circle class="cls-7" cx="1457.95" cy="504" r="8"/>
      </g>
      <rect class="cls-8" x="1442.95" y="431" width="30" height="9" rx="4.5" ry="4.5"/>
      <rect class="cls-8" x="1442.95" y="448.5" width="30" height="9" rx="4.5" ry="4.5"/>
      <rect class="cls-8" x="1442.95" y="466" width="30" height="9" rx="4.5" ry="4.5"/>
      <path class="cls-6" d="m1364.02,412.79c3.65-2.12,7.84-3.54,12.52-4.25,3.75-.57,10.95-1.58,12.96,2.81,3.56,7.76-11.07,6.22-14.78,6.99-6.56,1.37-12.58,5.06-14.88,11.62-.7,2-1.02,4.11-1.73,6.1-.99,2.79-2.96,5.7-6.28,4.59-4.38-1.47-2.56-7.98-1.44-11.02,2.81-7.63,7.43-13.26,13.62-16.85Z"/>
    </g>
  </g>
  <g id="LetterS">
    <g>
      <path class="cls-9" d="m1045.18,310.91l-.39.82-.57,1.22c-1.54,3.27-5.47,4.68-8.73,3.14l-8.77-4.14c-2.89-1.36-4.32-4.6-3.54-7.58.1-.39.23-.77.41-1.15l.96-2.04c1.54-3.27,5.47-4.68,8.73-3.14l8.77,4.14c3.26,1.54,4.67,5.47,3.13,8.73Z"/>
      <rect class="cls-9" x="1003.73" y="344.26" width="22.81" height="15.38" rx="6.56" ry="6.56" transform="translate(247.27 -399.55) rotate(25.26)"/>
      <rect class="cls-10" x="1044.71" y="353.42" width="5.48" height="21" rx="2.74" ry="2.74" transform="translate(1823.56 -428.06) rotate(115.26)"/>
      <rect class="cls-10" x="1048.21" y="345.99" width="5.48" height="21" rx="2.74" ry="2.74" transform="translate(1821.84 -441.84) rotate(115.26)"/>
      <rect class="cls-10" x="1051.72" y="338.55" width="5.48" height="21" rx="2.74" ry="2.74" transform="translate(1820.12 -455.61) rotate(115.26)"/>
      <rect class="cls-10" x="1055.23" y="331.12" width="5.48" height="21" rx="2.74" ry="2.74" transform="translate(1818.41 -469.39) rotate(115.26)"/>
      <path class="cls-10" d="m1071.28,337.71c.03.43-.05.89-.25,1.31-.64,1.36-2.28,1.95-3.64,1.31l-9.18-4.33-4.86-2.29c-.98-.47-1.56-1.45-1.57-2.47,0-.4.08-.8.26-1.18.46-.99,1.46-1.57,2.49-1.57.39,0,.79.08,1.16.26l4.76,2.25,9.27,4.37c.94.45,1.51,1.36,1.56,2.34Z"/>
      <path class="cls-10" d="m1074.6,331.94c-.64,1.36-2.28,1.95-3.65,1.31l-9.5-4.48-4.53-2.14c-1.37-.65-1.96-2.29-1.31-3.65.46-.99,1.46-1.57,2.49-1.57.39,0,.78.08,1.16.26l4.14,1.95,9.89,4.67c1.36.65,1.95,2.29,1.31,3.65Z"/>
      <path class="cls-4" d="m1061.6,410.88c-2.74-6.33-6.29-11.5-10.65-15.5-4.37-4-9.2-7.57-14.51-10.72-5.3-3.15-10.61-5.74-15.91-7.79-5.31-2.04-10.14-3.91-14.5-5.61-4.37-1.7-7.92-3.45-10.65-5.23-2.74-1.79-4.11-3.7-4.11-5.75,0-2.89,1.24-5.19,3.72-6.89,2.27-1.55,5.17-2.4,8.73-2.52.34-.02.68-.03,1.03-.03,4.53.34,10.2,1.79,17,4.34,1.26.47,2.52.97,3.77,1.49,3.29,1.34,6.55,2.81,9.77,4.43,2.16,1.07,4.3,2.21,6.42,3.4.58.34,1.14.52,1.67.53.4.02.78-.05,1.15-.22.85-.38,1.49-1.22,1.92-2.5l.7-1.56,1.11-2.5,2.24-5.01,4.48-10,2.23-5.01,1-2.23.57-1.27,1.67-3.73,1-2.23,1.56-3.5c.32-.56.46-1.11.39-1.65-.11-1.03-.93-2.01-2.44-2.96-2.38-1.62-4.87-3.15-7.46-4.59-2.78-1.55-5.69-3-8.71-4.34-3.97-1.78-8.14-3.37-12.52-4.79-3.09-1-6.12-1.86-9.09-2.57-7.43-1.79-14.47-2.68-21.13-2.68-19.94,0-36,5.36-48.19,16.09-12.19,10.73-18.29,24.89-18.29,42.5,0,6.81,1.05,13.06,3.15,18.76,2.09,5.7,4.87,10.47,8.34,14.29,3.46,3.84,7.42,7.34,11.87,10.53s8.96,5.79,13.54,7.79c4.57,2,9.09,3.93,13.54,5.81,4.45,1.87,8.4,3.46,11.87,4.78,3.46,1.32,6.24,2.81,8.34,4.47,2.1,1.66,3.15,3.38,3.15,5.17,0,2.97-1.27,5.38-3.79,7.21-2.53,1.83-5.88,2.74-10.08,2.74-4.96-.34-10.78-1.66-17.45-3.96-6.67-2.29-13.05-5.14-19.12-8.55-2.31-1.44-3.9-.74-4.75,2.1l-3.34,7.53-.75,1.7-8.98,20.24-3.49,7.87c-.85,1.46-.12,3.06,2.19,4.78,6.5,5.25,15.08,9.48,25.73,12.66,10.65,3.19,21.49,4.78,32.53,4.78,20.19,0,36.51-5.41,48.96-16.23,12.45-10.82,18.67-25.03,18.67-42.62,0-7.83-1.37-14.91-4.1-21.25Z"/>
      <path class="cls-9" d="m1063.01,325.27l-1.56,3.5-1,2.23-1.67,3.73-.57,1.27-1,2.23-2.23,5.01-4.48,10-2.24,5.01-1.11,2.5-.7,1.56c-.43,1.28-1.07,2.12-1.92,2.5-.37.17-.75.24-1.15.22-.53-.01-1.09-.19-1.67-.53-2.12-1.19-4.26-2.33-6.42-3.4-4.34-4.79-6.98-11.13-6.98-18.1,0-7.36,2.94-14.03,7.72-18.89,4.5-4.6,10.64-7.59,17.47-8.04,2.59,1.44,5.08,2.97,7.46,4.59,1.51.95,2.33,1.93,2.44,2.96.07.54-.07,1.09-.39,1.65Z"/>
      <path class="cls-11" d="m930.2,447.84l-4.31-1.57c-1.58-.58-3.32.24-3.9,1.82l-5.04,13.84c-.58,1.58.24,3.32,1.82,3.9l6.43,2.34c1.59.58,2.4,2.35,1.8,3.94l-9.96,26.28c-.59,1.56-2.32,2.35-3.89,1.78h0c-1.58-.58-2.39-2.32-1.82-3.9l7.33-20.12c.58-1.58-.24-3.32-1.82-3.9l-7.4-2.7c-1.58-.58-2.39-2.32-1.82-3.9l9.69-26.58c.58-1.58,2.32-2.39,3.9-1.82l11.37,4.14c1.63.6,2.44,2.44,1.76,4.04l-.31.73c-.63,1.49-2.32,2.23-3.84,1.68Z"/>
      <path class="cls-9" d="m952.31,442.29l-7.21,17.51c-.53,1.29-2.02,1.91-3.3,1.38l-.69-.29-13.7-5.64c-1.29-.53-1.91-2.01-1.38-3.3l2.02-4.9,2.62-6.35,2.58-6.26c.53-1.29,2.02-1.91,3.3-1.38l7.32,3.01,6.97,2.88.1.04c1.29.53,1.9,2.01,1.37,3.3Z"/>
      <g>
        <rect class="cls-9" x="980.31" y="370" width="22" height="42" rx="11" ry="11" transform="translate(252.16 1158.62) rotate(-67.61)"/>
        <rect class="cls-9" x="1011.76" y="379.97" width="7.6" height="42" rx="3.8" ry="3.8" transform="translate(257.95 1187.21) rotate(-67.61)"/>
        <rect class="cls-1" x="989.55" y="383.81" width="22" height="22" rx="11" ry="11" transform="translate(254.36 1169.52) rotate(-67.61)"/>
      </g>
      <path class="cls-2" d="m968.77,319.64c3.65-2.12,7.84-3.54,12.52-4.25,3.75-.57,10.95-1.58,12.96,2.81,3.56,7.76-11.07,6.22-14.78,6.99-6.56,1.37-12.58,5.06-14.88,11.62-.7,2-1.02,4.11-1.73,6.1-.99,2.79-2.96,5.7-6.28,4.59-4.38-1.47-2.56-7.98-1.44-11.02,2.81-7.63,7.43-13.26,13.62-16.85Z"/>
    </g>
  </g>
</svg>