<?xml version="1.0" encoding="UTF-8"?>
<svg id="Razor" xmlns="http://www.w3.org/2000/svg" viewBox="0 0 2487.06 860.06">
  <defs>
    <style>
      .cls-1 {
        fill: #de5964;
      }

      .cls-2 {
        fill: #716e6e;
      }

      .cls-3 {
        fill: #ece6e3;
      }

      .cls-4 {
        fill: #fcfbfb;
      }

      .cls-5 {
        opacity: .09;
      }
    </style>
  </defs>
  <path class="cls-1" d="m580.23,320.45h-196.18c-41.73,0-75.55,33.83-75.55,75.55,0,20.86,8.46,39.74,22.14,53.42,13.65,13.68,32.55,22.14,53.42,22.14h196.18c8.62,0,16.89-1.43,24.58-4.11,5.86-1.99,11.4-4.72,16.52-8.06,9.65-6.23,17.76-14.63,23.67-24.5,6.87-11.37,10.79-24.65,10.79-38.89,0-16.89-5.54-32.48-14.9-45.07-5.38-7.21-12.01-13.44-19.56-18.32-11.82-7.71-25.93-12.17-41.09-12.17Z"/>
  <path class="cls-2" d="m732.85,246.22h-53.39c-5.75,0-10.42,4.69-10.42,10.45v278.7c0,5.75,4.67,10.42,10.42,10.42h53.39c5.75,0,10.42-4.67,10.42-10.42v-278.7c0-5.75-4.67-10.45-10.42-10.45Z"/>
  <path class="cls-1" d="m757.37,283.33h-111.42c-.93,4.14-2.49,8.14-4.82,11.77-2.23,3.45-4.75,6.47-7.53,9.12-1.83,8.19-5.62,15.83-11.72,21.92-.19.16-.37.32-.56.5v149.94c.53.24,1.06.45,1.59.74,5.51,1.78,10.26,4.82,14.29,9.17,5.62,5.59,10.18,13.84,12.06,22.16h112.4c-9.73-7.95-16.01-19.78-16.01-33.62,0-1.14.05-2.31.16-3.45,1.14-13.47,8.99-26.19,20.15-33.8,3.61-2.47,7.58-4.4,11.77-5.62v-73.3c-4.27-1.06-8.32-2.65-12.09-4.77-11.85-6.63-20.49-18.19-22.37-32.32-.27-1.94-.4-3.9-.4-5.91,0-1.86.13-3.68.4-5.51,1.38-10.23,6.6-19.88,14.1-27.04Z"/>
  <rect class="cls-2" x="418.52" y="311.18" width="15.91" height="169.67" rx="3" ry="3" transform="translate(30.46 822.48) rotate(-90)"/>
  <rect class="cls-2" x="508.65" y="341.67" width="55.67" height="108.69" rx="10.5" ry="10.5" transform="translate(140.48 932.5) rotate(-90)"/>
  <rect class="cls-4" x="482.14" y="368.18" width="55.67" height="55.67" rx="10.5" ry="10.5" transform="translate(113.97 905.99) rotate(-90)"/>
  <path class="cls-1" d="m647.83,434.15l-2.84.74-23.67,6.28-39,10.37-64.26,17.05c1.67-.32,20.44-3.58,40.35,2.97,8.83,2.89,17.89,7.71,25.79,15.61,26.51,26.51,66.89,21.5,66.89,21.5l-1.62-37.06-1.64-37.46Z"/>
  <path class="cls-1" d="m651.08,283.39s-40.37-4.65-66.88,19.99c-26.51,24.63-66.28,17.24-66.28,17.24l129.9,32.02,3.25-69.26Z"/>
  <path class="cls-3" d="m808.22,489.82h-34.46c-2.54,0-4.88,1.03-6.55,2.73-1.7,1.67-2.73,4-2.73,6.55,0,4.16,2.76,7.69,6.55,8.85.87.29,1.78.42,2.73.42h34.46c5.12,0,9.28-4.16,9.28-9.28s-4.16-9.28-9.28-9.28Z"/>
  <path class="cls-3" d="m808.22,458.01h-34.46c-2.54,0-4.88,1.03-6.55,2.73-1.7,1.67-2.73,4-2.73,6.55,0,1.56.4,3.05,1.09,4.32,1.56,2.94,4.64,4.96,8.19,4.96h34.46c1.88,0,3.63-.56,5.09-1.54,2.52-1.67,4.19-4.51,4.19-7.74,0-5.12-4.16-9.28-9.28-9.28Z"/>
  <rect class="cls-3" x="781.71" y="406.31" width="18.56" height="53.02" rx="3.5" ry="3.5" transform="translate(358.17 1223.81) rotate(-90)"/>
  <rect class="cls-3" x="781.71" y="369.2" width="18.56" height="53.02" rx="3.5" ry="3.5" transform="translate(395.28 1186.7) rotate(-90)"/>
  <rect class="cls-3" x="781.71" y="332.08" width="18.56" height="53.02" rx="3.5" ry="3.5" transform="translate(432.39 1149.58) rotate(-90)"/>
  <rect class="cls-3" x="781.71" y="297.62" width="18.56" height="53.02" rx="3.5" ry="3.5" transform="translate(466.86 1115.12) rotate(-90)"/>
  <rect class="cls-3" x="781.71" y="265.81" width="18.56" height="53.02" rx="3.5" ry="3.5" transform="translate(498.67 1083.31) rotate(-90)"/>
  <path class="cls-2" d="m767.32,283.33h-23.3c-.24.08-.5.16-.74.24-33.59,10.55-60.74,35.23-74.23,66.91-5.99,14-9.28,29.4-9.28,45.52s3.29,31.52,9.28,45.52c4.67,10.98,10.98,21.1,18.64,30.09,14.45,16.99,33.64,29.93,55.59,36.82.24.08.5.16.74.24h23.3c.4,0,.82-.03,1.19-.08.87-.11,1.72-.32,2.52-.64,3.92-1.46,6.71-5.25,6.71-9.7v-204.5c0-4.75-3.18-8.75-7.53-9.99-.53-.16-1.11-.29-1.7-.34-.37-.05-.8-.08-1.19-.08Z"/>
  <path class="cls-5" d="m308.99,399.67c1.13,4.11.37,8.45,1.29,12.56,1.03,4.59,2.5,9.09,4.36,13.41,3.73,8.64,9.04,16.62,15.63,23.34,14.02,14.29,33.76,22.58,53.78,22.58h174.36c8.83,2.89,17.89,7.71,25.79,15.61,26.51,26.51,66.89,21.5,66.89,21.5h17.95v26.7c0,5.75,4.67,10.42,10.42,10.42h53.39c5.75,0,10.42-4.67,10.42-10.42v-26.7h24.04c.4,0,.82-.03,1.19-.08.87-.11,1.72-.32,2.52-.64.87.29,1.78.42,2.73.42h34.46c5.12,0,9.28-4.16,9.28-9.28s-4.16-9.28-9.28-9.28h-30.49v-13.26h30.49c1.88,0,3.63-.56,5.09-1.54,0,0-35.58-3.42-35.58-3.42h-92.11c-34.08,0-81.49,8.67-104.43-22.83-1.32-1.81-2.57-3.75-4.41-5.04-6.31-4.42-20.76-1.71-28.27-1.7-12.29.02-24.58.03-36.87.04-23.81.02-47.62.03-71.43.03-12.84,0-25.68-.02-38.52.02-12.41.04-24.74,1.23-37.13,1.37-9.25.11-18.85-1.19-26.66-6.16-6.83-4.35-11.53-11.05-15.71-17.83-3.92-6.36-7.51-15.01-13.22-19.84Z"/>
</svg>