<?xml version="1.0" encoding="UTF-8"?>
<svg xmlns="http://www.w3.org/2000/svg" viewBox="0 0 2487.06 860.06">
  <defs>
    <style>
      .cls-1 {
        fill: #42210b;
      }
    </style>
  </defs>
  <g id="LetterEstart">
    <path class="cls-1" d="m1743.39,404.65c0-23.06,7.06-41.64,21.18-55.76s32.71-21.18,55.76-21.18,39.2,6.74,51.55,20.21c12.35,13.47,18.52,32.3,18.52,56.47,0,3.89-.39,7.86-1.17,11.92-.26,2.16-1.55,3.24-3.89,3.24h-85.23c0,.42.04,1,.13,1.76.08.75.54,2.05,1.36,3.89.82,1.84,1.92,3.47,3.3,4.9,1.38,1.42,3.6,2.72,6.67,3.89,3.06,1.17,6.67,1.76,10.82,1.76,14.59,0,28.15-2.84,40.67-8.54.86-.33,1.66-.31,2.4.08.73.39,1.23,1.06,1.49,2.02l11.4,33.04c.52,1.74-.09,3.08-1.81,4.03-7.08,4.68-15.46,8.35-25.13,10.99-9.67,2.64-19.6,3.97-29.79,3.97-23.4,0-42.29-7.04-56.67-21.11-14.38-14.07-21.57-32.6-21.57-55.57Zm56.47-13.08h37.69c0-5.94-1.62-10.73-4.86-14.36-3.24-3.63-7.53-5.45-12.89-5.45-5.96,0-10.77,1.82-14.44,5.45-3.67,3.63-5.5,8.42-5.5,14.36Z"/>
  </g>
  <g id="LetterVstart">
    <path class="cls-1" d="m1533.87,335.09c-.34-.86-.24-1.68.32-2.46.56-.78,1.36-1.17,2.4-1.17h49.87c2.42,0,4.06,1.21,4.92,3.63l21.24,76.68,21.24-76.68c.26-1.12.86-2.01,1.81-2.66.95-.65,1.94-.97,2.98-.97h50.13c1.12,0,1.96.37,2.53,1.1.56.73.71,1.58.45,2.53l-47.02,138.46c-.43.95-1.17,1.81-2.2,2.59-1.04.78-2.07,1.17-3.11,1.17h-53.62c-1.04,0-2.01-.39-2.92-1.17-.91-.78-1.49-1.64-1.75-2.59l-47.28-138.46Z"/>
  </g>
  <g id="LetterAstart">
    <path class="cls-1" d="m1331.6,432.49c.08-13.04,4.77-23.51,14.05-31.41,9.28-7.9,21.39-11.85,36.33-11.85,7.68,0,14.68,1.3,20.98,3.89,6.3,2.59,10.79,6,13.47,10.23v-11.14c0-5.7-1.86-10.27-5.57-13.73-3.71-3.45-8.64-5.18-14.77-5.18-5.18,0-10.69.8-16.51,2.4-5.83,1.6-10.95,3.65-15.35,6.15-1.38.86-2.72.13-4.02-2.2l-15.15-31.73c-.78-1.9-.3-3.58,1.42-5.05,7.6-4.83,16.43-8.57,26.49-11.2,10.06-2.63,20.4-3.95,31.02-3.95,22.97,0,39.89,6.22,50.77,18.65,10.88,12.43,16.32,31.86,16.32,58.29v68.65c0,1.04-.41,1.96-1.23,2.78-.82.82-1.75,1.23-2.78,1.23h-33.42c-1.04,0-1.99-.41-2.85-1.23-.86-.82-1.29-1.75-1.29-2.78l-1.94-7.12c-4.4,4.66-10.69,8.35-18.85,11.07s-17.08,4.08-26.75,4.08c-15.28,0-27.55-4.49-36.79-13.47-9.07-8.81-13.6-20.34-13.6-34.58v-.78Zm62.3-7.22c-2.07,1.75-3.11,4.11-3.11,7.09s1.04,5.34,3.11,7.09c2.07,1.75,4.75,2.62,8.03,2.62,5.18,0,10.02-2.28,14.51-6.83v-5.91c-4.4-4.46-9.24-6.69-14.51-6.69-3.28,0-5.96.88-8.03,2.63Z"/>
  </g>
  <g id="LetterHstart">
    <path class="cls-1" d="m1125.83,473.29v-184.32c0-1.04.39-1.96,1.17-2.78.78-.82,1.68-1.23,2.72-1.23h46.76c1.04,0,1.96.41,2.79,1.23.82.82,1.23,1.75,1.23,2.78v53.62c3.54-4.66,8.34-8.31,14.38-10.94,6.05-2.63,12.66-3.95,19.83-3.95,16.05,0,28.54,4.3,37.48,12.89,8.94,8.59,13.41,20.57,13.41,35.94v96.76c0,1.04-.41,1.96-1.24,2.78-.83.82-1.76,1.23-2.8,1.23h-46.85c-1.04,0-1.95-.41-2.73-1.23-.78-.82-1.13-1.75-1.04-2.78v-83.29c0-5.27-1.15-9.37-3.43-12.31-2.29-2.93-5.46-4.4-9.52-4.4-2.85,0-5.4.52-7.64,1.55-2.25,1.04-3.95,2.27-5.12,3.69-1.17,1.42-2.14,2.87-2.91,4.34-.78,1.47-1.3,2.72-1.55,3.76l-.26,1.55v85.1c0,1.04-.41,1.96-1.23,2.78s-1.75,1.23-2.79,1.23h-46.76c-1.04,0-1.94-.41-2.72-1.23-.78-.82-1.17-1.75-1.17-2.78Z"/>
  </g>
  <g id="LetterSstart">
    <path class="cls-1" d="m926.68,349.41c0-17.77,6.15-32.07,18.46-42.9,12.3-10.83,28.52-16.24,48.64-16.24,9.41,0,19.58,1.77,30.5,5.3,10.92,3.54,20.57,8.15,28.95,13.84,2.33,1.47,3.02,3.02,2.07,4.66l-16.71,37.38c-.43,1.3-1.08,2.14-1.94,2.52-.86.39-1.81.28-2.85-.32-6.56-3.69-13.28-6.83-20.14-9.4-6.86-2.57-12.59-4.04-17.16-4.38-4.06,0-7.34.86-9.84,2.58-2.51,1.72-3.76,4.04-3.76,6.95,0,2.06,1.38,4,4.14,5.8,2.76,1.8,6.35,3.56,10.75,5.28,4.4,1.72,9.28,3.61,14.64,5.67,5.35,2.06,10.71,4.68,16.06,7.86,5.35,3.18,10.23,6.78,14.64,10.82,4.4,4.04,7.99,9.25,10.75,15.65,2.76,6.4,4.14,13.55,4.14,21.45,0,17.75-6.28,32.09-18.85,43.01-12.56,10.92-29.04,16.38-49.41,16.38-11.14,0-22.08-1.61-32.83-4.83-10.75-3.22-19.41-7.48-25.97-12.78-2.33-1.74-3.07-3.35-2.2-4.83l16.71-37.69c.86-2.87,2.46-3.57,4.79-2.11,6.13,3.44,12.56,6.31,19.3,8.63,6.74,2.32,12.61,3.65,17.62,3.99,4.23,0,7.62-.92,10.17-2.77,2.55-1.85,3.82-4.27,3.82-7.28,0-1.8-1.06-3.54-3.17-5.22-2.12-1.67-4.92-3.18-8.42-4.51-3.5-1.33-7.49-2.94-11.98-4.83-4.49-1.89-9.05-3.84-13.67-5.86-4.62-2.02-9.18-4.64-13.67-7.86-4.49-3.22-8.48-6.76-11.98-10.63-3.5-3.86-6.3-8.67-8.42-14.43-2.12-5.75-3.17-12.06-3.17-18.93Z"/>
  </g>
</svg>