<?xml version="1.0" encoding="UTF-8"?>
<svg id="LetterEstart" xmlns="http://www.w3.org/2000/svg" viewBox="0 0 2487.06 860.06">
  <defs>
    <style>
      .cls-1 {
        fill: #42210b;
      }
    </style>
  </defs>
  <path class="cls-1" d="m1743.39,404.65c0-23.06,7.06-41.64,21.18-55.76s32.71-21.18,55.76-21.18,39.2,6.74,51.55,20.21c12.35,13.47,18.52,32.3,18.52,56.47,0,3.89-.39,7.86-1.17,11.92-.26,2.16-1.55,3.24-3.89,3.24h-85.23c0,.42.04,1,.13,1.76.08.75.54,2.05,1.36,3.89.82,1.84,1.92,3.47,3.3,4.9,1.38,1.42,3.6,2.72,6.67,3.89,3.06,1.17,6.67,1.76,10.82,1.76,14.59,0,28.15-2.84,40.67-8.54.86-.33,1.66-.31,2.4.08.73.39,1.23,1.06,1.49,2.02l11.4,33.04c.52,1.74-.09,3.08-1.81,4.03-7.08,4.68-15.46,8.35-25.13,10.99-9.67,2.64-19.6,3.97-29.79,3.97-23.4,0-42.29-7.04-56.67-21.11-14.38-14.07-21.57-32.6-21.57-55.57Zm56.47-13.08h37.69c0-5.94-1.62-10.73-4.86-14.36-3.24-3.63-7.53-5.45-12.89-5.45-5.96,0-10.77,1.82-14.44,5.45-3.67,3.63-5.5,8.42-5.5,14.36Z"/>
</svg>