<?xml version="1.0" encoding="UTF-8"?>
<svg id="LetterHstart" xmlns="http://www.w3.org/2000/svg" viewBox="0 0 2487.06 860.06">
  <defs>
    <style>
      .cls-1 {
        fill: #42210b;
      }
    </style>
  </defs>
  <path class="cls-1" d="m1125.83,473.29v-184.32c0-1.04.39-1.96,1.17-2.78.78-.82,1.68-1.23,2.72-1.23h46.76c1.04,0,1.96.41,2.79,1.23.82.82,1.23,1.75,1.23,2.78v53.62c3.54-4.66,8.34-8.31,14.38-10.94,6.05-2.63,12.66-3.95,19.83-3.95,16.05,0,28.54,4.3,37.48,12.89,8.94,8.59,13.41,20.57,13.41,35.94v96.76c0,1.04-.41,1.96-1.24,2.78-.83.82-1.76,1.23-2.8,1.23h-46.85c-1.04,0-1.95-.41-2.73-1.23-.78-.82-1.13-1.75-1.04-2.78v-83.29c0-5.27-1.15-9.37-3.43-12.31-2.29-2.93-5.46-4.4-9.52-4.4-2.85,0-5.4.52-7.64,1.55-2.25,1.04-3.95,2.27-5.12,3.69-1.17,1.42-2.14,2.87-2.91,4.34-.78,1.47-1.3,2.72-1.55,3.76l-.26,1.55v85.1c0,1.04-.41,1.96-1.23,2.78s-1.75,1.23-2.79,1.23h-46.76c-1.04,0-1.94-.41-2.72-1.23-.78-.82-1.17-1.75-1.17-2.78Z"/>
</svg>