<?xml version="1.0" encoding="UTF-8"?>
<svg id="LetterVstart" xmlns="http://www.w3.org/2000/svg" viewBox="0 0 2487.06 860.06">
  <defs>
    <style>
      .cls-1 {
        fill: #42210b;
      }
    </style>
  </defs>
  <path class="cls-1" d="m1533.87,335.09c-.34-.86-.24-1.68.32-2.46.56-.78,1.36-1.17,2.4-1.17h49.87c2.42,0,4.06,1.21,4.92,3.63l21.24,76.68,21.24-76.68c.26-1.12.86-2.01,1.81-2.66.95-.65,1.94-.97,2.98-.97h50.13c1.12,0,1.96.37,2.53,1.1.56.73.71,1.58.45,2.53l-47.02,138.46c-.43.95-1.17,1.81-2.2,2.59-1.04.78-2.07,1.17-3.11,1.17h-53.62c-1.04,0-2.01-.39-2.92-1.17-.91-.78-1.49-1.64-1.75-2.59l-47.28-138.46Z"/>
</svg>