<?xml version="1.0" encoding="UTF-8"?>
<svg id="LetterSstart" xmlns="http://www.w3.org/2000/svg" viewBox="0 0 2487.06 860.06">
  <defs>
    <style>
      .cls-1 {
        fill: #42210b;
      }
    </style>
  </defs>
  <path class="cls-1" d="m926.68,349.41c0-17.77,6.15-32.07,18.46-42.9,12.3-10.83,28.52-16.24,48.64-16.24,9.41,0,19.58,1.77,30.5,5.3,10.92,3.54,20.57,8.15,28.95,13.84,2.33,1.47,3.02,3.02,2.07,4.66l-16.71,37.38c-.43,1.3-1.08,2.14-1.94,2.52-.86.39-1.81.28-2.85-.32-6.56-3.69-13.28-6.83-20.14-9.4-6.86-2.57-12.59-4.04-17.16-4.38-4.06,0-7.34.86-9.84,2.58-2.51,1.72-3.76,4.04-3.76,6.95,0,2.06,1.38,4,4.14,5.8,2.76,1.8,6.35,3.56,10.75,5.28,4.4,1.72,9.28,3.61,14.64,5.67,5.35,2.06,10.71,4.68,16.06,7.86,5.35,3.18,10.23,6.78,14.64,10.82,4.4,4.04,7.99,9.25,10.75,15.65,2.76,6.4,4.14,13.55,4.14,21.45,0,17.75-6.28,32.09-18.85,43.01-12.56,10.92-29.04,16.38-49.41,16.38-11.14,0-22.08-1.61-32.83-4.83-10.75-3.22-19.41-7.48-25.97-12.78-2.33-1.74-3.07-3.35-2.2-4.83l16.71-37.69c.86-2.87,2.46-3.57,4.79-2.11,6.13,3.44,12.56,6.31,19.3,8.63,6.74,2.32,12.61,3.65,17.62,3.99,4.23,0,7.62-.92,10.17-2.77,2.55-1.85,3.82-4.27,3.82-7.28,0-1.8-1.06-3.54-3.17-5.22-2.12-1.67-4.92-3.18-8.42-4.51-3.5-1.33-7.49-2.94-11.98-4.83-4.49-1.89-9.05-3.84-13.67-5.86-4.62-2.02-9.18-4.64-13.67-7.86-4.49-3.22-8.48-6.76-11.98-10.63-3.5-3.86-6.3-8.67-8.42-14.43-2.12-5.75-3.17-12.06-3.17-18.93Z"/>
</svg>