<?xml version="1.0" encoding="UTF-8"?>
<svg id="LetterAstart" xmlns="http://www.w3.org/2000/svg" viewBox="0 0 2487.06 860.06">
  <defs>
    <style>
      .cls-1 {
        fill: #42210b;
      }
    </style>
  </defs>
  <path class="cls-1" d="m1331.6,432.49c.08-13.04,4.77-23.51,14.05-31.41,9.28-7.9,21.39-11.85,36.33-11.85,7.68,0,14.68,1.3,20.98,3.89,6.3,2.59,10.79,6,13.47,10.23v-11.14c0-5.7-1.86-10.27-5.57-13.73-3.71-3.45-8.64-5.18-14.77-5.18-5.18,0-10.69.8-16.51,2.4-5.83,1.6-10.95,3.65-15.35,6.15-1.38.86-2.72.13-4.02-2.2l-15.15-31.73c-.78-1.9-.3-3.58,1.42-5.05,7.6-4.83,16.43-8.57,26.49-11.2,10.06-2.63,20.4-3.95,31.02-3.95,22.97,0,39.89,6.22,50.77,18.65,10.88,12.43,16.32,31.86,16.32,58.29v68.65c0,1.04-.41,1.96-1.23,2.78-.82.82-1.75,1.23-2.78,1.23h-33.42c-1.04,0-1.99-.41-2.85-1.23-.86-.82-1.29-1.75-1.29-2.78l-1.94-7.12c-4.4,4.66-10.69,8.35-18.85,11.07s-17.08,4.08-26.75,4.08c-15.28,0-27.55-4.49-36.79-13.47-9.07-8.81-13.6-20.34-13.6-34.58v-.78Zm62.3-7.22c-2.07,1.75-3.11,4.11-3.11,7.09s1.04,5.34,3.11,7.09c2.07,1.75,4.75,2.62,8.03,2.62,5.18,0,10.02-2.28,14.51-6.83v-5.91c-4.4-4.46-9.24-6.69-14.51-6.69-3.28,0-5.96.88-8.03,2.63Z"/>
</svg>